<svg width="31" height="32" viewBox="0 0 31 32" fill="none" xmlns="http://www.w3.org/2000/svg">
<path d="M25.0714 0.214284H5.78571C2.59152 0.214284 0 2.8058 0 6V25.2857C0 28.4799 2.59152 31.0714 5.78571 31.0714H25.0714C28.2656 31.0714 30.8571 28.4799 30.8571 25.2857V6C30.8571 2.8058 28.2656 0.214284 25.0714 0.214284ZM10.0246 7.58705C12.7366 7.58705 15.0871 8.35045 15.0871 11.5045C15.0871 13.0915 14.3438 14.1161 12.9375 14.7991C14.8661 15.3616 15.8103 16.8281 15.8103 18.817C15.8103 22.0312 13.1183 23.3973 10.2455 23.3973H2.57143V7.58705H10.0246ZM9.58259 13.9754C10.8281 13.9754 11.7121 13.433 11.7121 12.0871C11.7121 10.6205 10.567 10.279 9.32143 10.279H6.04688V13.9754H9.58259ZM9.76339 20.7054C11.1897 20.7054 12.3348 20.2232 12.3348 18.6161C12.3348 17.0089 11.3705 16.346 9.84375 16.346H6.04688V20.7054H9.76339ZM22.8214 21.3482C23.7656 21.3482 24.9911 20.8259 25.2924 19.8616H28.0647C27.221 22.4732 25.4531 23.6987 22.7009 23.6987C19.0848 23.6987 16.8348 21.2679 16.8348 17.692C16.8348 14.2567 19.2254 11.625 22.7009 11.625C26.2969 11.625 28.2857 14.4576 28.2857 17.8326C28.2857 18.0335 28.2857 18.2344 28.2656 18.4353H20.0089C20.0089 20.2634 20.9732 21.3482 22.8214 21.3482ZM22.6205 13.9955C21.1138 13.9955 20.1094 14.9397 20.0089 16.4464H25.1116C24.971 14.9397 24.1875 13.9955 22.6205 13.9955ZM19.3661 8.65178V10.1987H25.7746V8.65178H19.3661Z" fill="white"/>
</svg>
