<svg width="14" height="15" viewBox="0 0 14 15" fill="none" xmlns="http://www.w3.org/2000/svg">
<path d="M10.2679 9.375C10.2679 9.29464 10.1964 9.23214 10.125 9.23214H9.0625C8.99107 9.23214 8.92857 9.29464 8.92857 9.375V10C8.92857 10.5625 7.71429 10.8036 7.07143 10.8036C5.38393 10.8036 4.16964 9.49107 4.16964 7.69643C4.16964 5.96429 5.33036 4.75893 7 4.75893C7.73214 4.75893 8.8125 5.01786 8.8125 5.58036V6.20536C8.8125 6.28571 8.875 6.34821 8.95536 6.34821H10.0089C10.0893 6.34821 10.1518 6.28571 10.1518 6.20536V5.23214C10.1518 3.8125 7.83929 3.5 6.95536 3.5C4.53571 3.5 2.71429 5.32143 2.71429 7.74107C2.71429 10.2054 4.55357 12.0714 7 12.0714C8.25893 12.0714 10.2679 11.6071 10.2679 10.3482V9.375ZM6.85714 2.07143C10.0089 2.07143 12.5714 4.63393 12.5714 7.78571C12.5714 10.9375 10.0089 13.5 6.85714 13.5C3.70536 13.5 1.14286 10.9375 1.14286 7.78571C1.14286 4.63393 3.70536 2.07143 6.85714 2.07143ZM13.7143 7.78571C13.7143 4 10.6429 0.928571 6.85714 0.928571C3.07143 0.928571 0 4 0 7.78571C0 11.5714 3.07143 14.6429 6.85714 14.6429C10.6429 14.6429 13.7143 11.5714 13.7143 7.78571Z" fill="black"/>
</svg>
