<svg width="31" height="32" viewBox="0 0 31 32" fill="none" xmlns="http://www.w3.org/2000/svg">
<path d="M20.5714 27.7768C18.9844 28.4397 17.2567 28.8214 15.4286 28.8214C12.2344 28.8214 9.32143 27.6763 7.03125 25.808C7.03125 25.808 7.21205 25.9286 7.33259 26.029C9.86384 20.5246 17.6786 17.7924 17.6786 17.7924C17.6987 17.7924 17.7388 17.7723 17.7589 17.7723C19.6071 22.5938 20.3705 26.6116 20.5714 27.7768ZM16.8549 15.5826C16.6942 15.6429 16.5134 15.683 16.3326 15.7433C16.3326 15.7433 9.22098 18.0335 5.625 24.442C3.53571 22.1116 2.25 19.0179 2.25 15.6429C2.25 15.5022 2.25 15.3616 2.27009 15.221C2.49107 15.221 9 15.3817 15.7902 13.3527C16.1719 14.096 16.5335 14.8393 16.8549 15.5826ZM14.7054 11.3237C8.37723 12.9911 2.87277 12.9308 2.53125 12.9308C3.39509 8.85268 6.12723 5.45759 9.80357 3.72991C9.98438 3.97098 12.4152 7.26562 14.7054 11.3237ZM28.4464 17.7321C27.8438 21.4085 25.7545 24.5826 22.8013 26.5714C22.6607 25.7879 21.9576 21.9107 20.2299 17.1496C24.4888 16.4866 28.1652 17.6518 28.4464 17.7321ZM12.2746 2.84598C12.2545 2.84598 12.2344 2.86607 12.2344 2.86607C12.2545 2.84598 12.2545 2.84598 12.2746 2.84598ZM24.1272 5.75893C24.0871 5.8192 22.2188 8.67188 17.2567 10.5201C15.0067 6.3817 12.5156 3.10714 12.3147 2.84598C13.3192 2.60491 14.3638 2.46428 15.4286 2.46428C18.7634 2.46428 21.817 3.70982 24.1272 5.75893ZM28.6071 15.5022C28.4464 15.4821 23.9665 14.4978 19.4263 15.0804C19.3259 14.8594 19.2455 14.6183 19.1451 14.3973C18.8638 13.7545 18.5625 13.1116 18.2612 12.4888C23.4643 10.3594 25.5737 7.3058 25.6138 7.26562C27.4621 9.51562 28.567 12.3884 28.6071 15.5022ZM30.8571 15.6429C30.8571 7.125 23.9464 0.214284 15.4286 0.214284C6.91071 0.214284 0 7.125 0 15.6429C0 24.1607 6.91071 31.0714 15.4286 31.0714C23.9464 31.0714 30.8571 24.1607 30.8571 15.6429Z" fill="white"/>
</svg>
