<svg width="36" height="30" viewBox="0 0 36 30" fill="none" xmlns="http://www.w3.org/2000/svg">
<path d="M36 9.90625C35.3973 10.5692 34.7143 11.1518 33.9911 11.654C30.6362 13.9241 27.2612 16.2143 23.9866 18.5848C22.2991 19.8304 20.2098 21.3571 18.0201 21.3571H18H17.9799C15.7902 21.3571 13.7009 19.8304 12.0134 18.5848C8.73884 16.1942 5.36384 13.9241 2.02902 11.654C1.28571 11.1518 0.602679 10.5692 0 9.90625V25.8571C0 27.625 1.44643 29.0714 3.21429 29.0714H32.7857C34.5536 29.0714 36 27.625 36 25.8571V9.90625ZM36 4C36 2.23214 34.5335 0.785714 32.7857 0.785714H3.21429C1.06473 0.785714 0 2.47321 0 4.44196C0 6.27009 2.02902 8.54018 3.45536 9.50446C6.5692 11.6741 9.72321 13.8437 12.8371 16.0335C14.1429 16.9375 16.3527 18.7857 17.9799 18.7857H18H18.0201C19.6473 18.7857 21.8571 16.9375 23.1629 16.0335C26.2768 13.8437 29.4308 11.6741 32.5647 9.50446C34.3326 8.27902 36 6.25 36 4Z" fill="white"/>
</svg>
