<svg width="159" height="39" viewBox="0 0 159 39" fill="none" xmlns="http://www.w3.org/2000/svg">
<rect y="0.433212" width="159" height="38" rx="19" fill="#2778F1"/>
<path d="M32.6165 13.6172H34.9385V24.5252H40.9325V26.4332H32.6165V13.6172ZM50.43 22.0052H44.166C44.214 22.9772 44.454 23.6972 44.886 24.1652C45.33 24.6212 45.984 24.8492 46.848 24.8492C47.844 24.8492 48.768 24.5252 49.62 23.8772L50.268 25.4252C49.836 25.7732 49.302 26.0552 48.666 26.2712C48.042 26.4752 47.406 26.5772 46.758 26.5772C45.27 26.5772 44.1 26.1572 43.248 25.3172C42.396 24.4772 41.97 23.3252 41.97 21.8612C41.97 20.9372 42.156 20.1152 42.528 19.3952C42.9 18.6752 43.422 18.1172 44.094 17.7212C44.766 17.3132 45.528 17.1092 46.38 17.1092C47.628 17.1092 48.612 17.5172 49.332 18.3332C50.064 19.1372 50.43 20.2472 50.43 21.6632V22.0052ZM46.434 18.7292C45.834 18.7292 45.342 18.9092 44.958 19.2692C44.586 19.6172 44.346 20.1272 44.238 20.7992H48.468C48.396 20.1152 48.186 19.5992 47.838 19.2512C47.502 18.9032 47.034 18.7292 46.434 18.7292ZM61.0293 17.3432V26.4332H58.8153V24.9752C58.5393 25.4792 58.1433 25.8752 57.6273 26.1632C57.1113 26.4392 56.5233 26.5772 55.8633 26.5772C55.0713 26.5772 54.3693 26.3852 53.7573 26.0012C53.1453 25.6172 52.6713 25.0712 52.3353 24.3632C51.9993 23.6552 51.8313 22.8332 51.8313 21.8972C51.8313 20.9612 51.9993 20.1332 52.3353 19.4132C52.6833 18.6812 53.1633 18.1172 53.7753 17.7212C54.3873 17.3132 55.0833 17.1092 55.8633 17.1092C56.5233 17.1092 57.1113 17.2532 57.6273 17.5412C58.1433 17.8172 58.5393 18.2072 58.8153 18.7112V17.3432H61.0293ZM56.4753 24.8132C57.2193 24.8132 57.7953 24.5552 58.2033 24.0392C58.6113 23.5232 58.8153 22.7972 58.8153 21.8612C58.8153 20.9012 58.6113 20.1632 58.2033 19.6472C57.7953 19.1312 57.2133 18.8732 56.4573 18.8732C55.7133 18.8732 55.1313 19.1432 54.7113 19.6832C54.3033 20.2112 54.0993 20.9492 54.0993 21.8972C54.0993 22.8332 54.3033 23.5532 54.7113 24.0572C55.1313 24.5612 55.7193 24.8132 56.4753 24.8132ZM68.3759 17.1272C68.7239 17.1272 69.0239 17.1752 69.2759 17.2712L69.2579 19.3232C68.8739 19.1672 68.4779 19.0892 68.0699 19.0892C67.3019 19.0892 66.7139 19.3112 66.3059 19.7552C65.9099 20.1992 65.7119 20.7872 65.7119 21.5192V26.4332H63.4799V19.9172C63.4799 18.9572 63.4319 18.0992 63.3359 17.3432H65.4419L65.6219 18.9452C65.8499 18.3572 66.2099 17.9072 66.7019 17.5952C67.1939 17.2832 67.7519 17.1272 68.3759 17.1272ZM75.7307 17.1092C77.9027 17.1092 78.9887 18.3572 78.9887 20.8532V26.4332H76.7387V20.9612C76.7387 20.2412 76.6007 19.7192 76.3247 19.3952C76.0487 19.0592 75.6227 18.8912 75.0467 18.8912C74.3627 18.8912 73.8107 19.1132 73.3907 19.5572C72.9707 19.9892 72.7607 20.5652 72.7607 21.2852V26.4332H70.5287V19.9172C70.5287 18.9572 70.4807 18.0992 70.3847 17.3432H72.4907L72.6527 18.8372C72.9647 18.2852 73.3847 17.8592 73.9127 17.5592C74.4527 17.2592 75.0587 17.1092 75.7307 17.1092ZM98.9678 13.6172V26.4332H96.9158V18.4772L93.5138 26.4332H91.9838L88.5638 18.5672V26.4332H86.5118V13.6172H88.3478L92.7578 23.6432L97.1318 13.6172H98.9678ZM105.729 26.5772C104.805 26.5772 103.989 26.3852 103.281 26.0012C102.585 25.6172 102.045 25.0712 101.661 24.3632C101.289 23.6432 101.103 22.8032 101.103 21.8432C101.103 20.8832 101.289 20.0492 101.661 19.3412C102.045 18.6212 102.585 18.0692 103.281 17.6852C103.989 17.3012 104.805 17.1092 105.729 17.1092C106.641 17.1092 107.445 17.3012 108.141 17.6852C108.837 18.0692 109.371 18.6212 109.743 19.3412C110.127 20.0492 110.319 20.8832 110.319 21.8432C110.319 22.8032 110.127 23.6432 109.743 24.3632C109.371 25.0712 108.837 25.6172 108.141 26.0012C107.445 26.3852 106.641 26.5772 105.729 26.5772ZM105.711 24.8132C106.479 24.8132 107.061 24.5672 107.457 24.0752C107.865 23.5712 108.069 22.8272 108.069 21.8432C108.069 20.8712 107.865 20.1332 107.457 19.6292C107.049 19.1132 106.473 18.8552 105.729 18.8552C104.973 18.8552 104.391 19.1132 103.983 19.6292C103.575 20.1332 103.371 20.8712 103.371 21.8432C103.371 22.8272 103.569 23.5712 103.965 24.0752C104.373 24.5672 104.955 24.8132 105.711 24.8132ZM117.155 17.1272C117.503 17.1272 117.803 17.1752 118.055 17.2712L118.037 19.3232C117.653 19.1672 117.257 19.0892 116.849 19.0892C116.081 19.0892 115.493 19.3112 115.085 19.7552C114.689 20.1992 114.491 20.7872 114.491 21.5192V26.4332H112.259V19.9172C112.259 18.9572 112.211 18.0992 112.115 17.3432H114.221L114.401 18.9452C114.629 18.3572 114.989 17.9072 115.481 17.5952C115.973 17.2832 116.531 17.1272 117.155 17.1272ZM127.088 22.0052H120.824C120.872 22.9772 121.112 23.6972 121.544 24.1652C121.988 24.6212 122.642 24.8492 123.506 24.8492C124.502 24.8492 125.426 24.5252 126.278 23.8772L126.926 25.4252C126.494 25.7732 125.96 26.0552 125.324 26.2712C124.7 26.4752 124.064 26.5772 123.416 26.5772C121.928 26.5772 120.758 26.1572 119.906 25.3172C119.054 24.4772 118.628 23.3252 118.628 21.8612C118.628 20.9372 118.814 20.1152 119.186 19.3952C119.558 18.6752 120.08 18.1172 120.752 17.7212C121.424 17.3132 122.186 17.1092 123.038 17.1092C124.286 17.1092 125.27 17.5172 125.99 18.3332C126.722 19.1372 127.088 20.2472 127.088 21.6632V22.0052ZM123.092 18.7292C122.492 18.7292 122 18.9092 121.616 19.2692C121.244 19.6172 121.004 20.1272 120.896 20.7992H125.126C125.054 20.1152 124.844 19.5992 124.496 19.2512C124.16 18.9032 123.692 18.7292 123.092 18.7292Z" fill="white"/>
</svg>
