<svg width="159" height="38" viewBox="0 0 159 38" fill="none" xmlns="http://www.w3.org/2000/svg">
<rect x="1" y="1" width="157" height="36" rx="18" fill="white" stroke="#4188F2" stroke-width="2"/>
<path d="M32.6165 13.184H34.9385V24.092H40.9325V26H32.6165V13.184ZM50.43 21.572H44.166C44.214 22.544 44.454 23.264 44.886 23.732C45.33 24.188 45.984 24.416 46.848 24.416C47.844 24.416 48.768 24.092 49.62 23.444L50.268 24.992C49.836 25.34 49.302 25.622 48.666 25.838C48.042 26.042 47.406 26.144 46.758 26.144C45.27 26.144 44.1 25.724 43.248 24.884C42.396 24.044 41.97 22.892 41.97 21.428C41.97 20.504 42.156 19.682 42.528 18.962C42.9 18.242 43.422 17.684 44.094 17.288C44.766 16.88 45.528 16.676 46.38 16.676C47.628 16.676 48.612 17.084 49.332 17.9C50.064 18.704 50.43 19.814 50.43 21.23V21.572ZM46.434 18.296C45.834 18.296 45.342 18.476 44.958 18.836C44.586 19.184 44.346 19.694 44.238 20.366H48.468C48.396 19.682 48.186 19.166 47.838 18.818C47.502 18.47 47.034 18.296 46.434 18.296ZM61.0293 16.91V26H58.8153V24.542C58.5393 25.046 58.1433 25.442 57.6273 25.73C57.1113 26.006 56.5233 26.144 55.8633 26.144C55.0713 26.144 54.3693 25.952 53.7573 25.568C53.1453 25.184 52.6713 24.638 52.3353 23.93C51.9993 23.222 51.8313 22.4 51.8313 21.464C51.8313 20.528 51.9993 19.7 52.3353 18.98C52.6833 18.248 53.1633 17.684 53.7753 17.288C54.3873 16.88 55.0833 16.676 55.8633 16.676C56.5233 16.676 57.1113 16.82 57.6273 17.108C58.1433 17.384 58.5393 17.774 58.8153 18.278V16.91H61.0293ZM56.4753 24.38C57.2193 24.38 57.7953 24.122 58.2033 23.606C58.6113 23.09 58.8153 22.364 58.8153 21.428C58.8153 20.468 58.6113 19.73 58.2033 19.214C57.7953 18.698 57.2133 18.44 56.4573 18.44C55.7133 18.44 55.1313 18.71 54.7113 19.25C54.3033 19.778 54.0993 20.516 54.0993 21.464C54.0993 22.4 54.3033 23.12 54.7113 23.624C55.1313 24.128 55.7193 24.38 56.4753 24.38ZM68.3759 16.694C68.7239 16.694 69.0239 16.742 69.2759 16.838L69.2579 18.89C68.8739 18.734 68.4779 18.656 68.0699 18.656C67.3019 18.656 66.7139 18.878 66.3059 19.322C65.9099 19.766 65.7119 20.354 65.7119 21.086V26H63.4799V19.484C63.4799 18.524 63.4319 17.666 63.3359 16.91H65.4419L65.6219 18.512C65.8499 17.924 66.2099 17.474 66.7019 17.162C67.1939 16.85 67.7519 16.694 68.3759 16.694ZM75.7307 16.676C77.9027 16.676 78.9887 17.924 78.9887 20.42V26H76.7387V20.528C76.7387 19.808 76.6007 19.286 76.3247 18.962C76.0487 18.626 75.6227 18.458 75.0467 18.458C74.3627 18.458 73.8107 18.68 73.3907 19.124C72.9707 19.556 72.7607 20.132 72.7607 20.852V26H70.5287V19.484C70.5287 18.524 70.4807 17.666 70.3847 16.91H72.4907L72.6527 18.404C72.9647 17.852 73.3847 17.426 73.9127 17.126C74.4527 16.826 75.0587 16.676 75.7307 16.676ZM98.9678 13.184V26H96.9158V18.044L93.5138 26H91.9838L88.5638 18.134V26H86.5118V13.184H88.3478L92.7578 23.21L97.1318 13.184H98.9678ZM105.729 26.144C104.805 26.144 103.989 25.952 103.281 25.568C102.585 25.184 102.045 24.638 101.661 23.93C101.289 23.21 101.103 22.37 101.103 21.41C101.103 20.45 101.289 19.616 101.661 18.908C102.045 18.188 102.585 17.636 103.281 17.252C103.989 16.868 104.805 16.676 105.729 16.676C106.641 16.676 107.445 16.868 108.141 17.252C108.837 17.636 109.371 18.188 109.743 18.908C110.127 19.616 110.319 20.45 110.319 21.41C110.319 22.37 110.127 23.21 109.743 23.93C109.371 24.638 108.837 25.184 108.141 25.568C107.445 25.952 106.641 26.144 105.729 26.144ZM105.711 24.38C106.479 24.38 107.061 24.134 107.457 23.642C107.865 23.138 108.069 22.394 108.069 21.41C108.069 20.438 107.865 19.7 107.457 19.196C107.049 18.68 106.473 18.422 105.729 18.422C104.973 18.422 104.391 18.68 103.983 19.196C103.575 19.7 103.371 20.438 103.371 21.41C103.371 22.394 103.569 23.138 103.965 23.642C104.373 24.134 104.955 24.38 105.711 24.38ZM117.155 16.694C117.503 16.694 117.803 16.742 118.055 16.838L118.037 18.89C117.653 18.734 117.257 18.656 116.849 18.656C116.081 18.656 115.493 18.878 115.085 19.322C114.689 19.766 114.491 20.354 114.491 21.086V26H112.259V19.484C112.259 18.524 112.211 17.666 112.115 16.91H114.221L114.401 18.512C114.629 17.924 114.989 17.474 115.481 17.162C115.973 16.85 116.531 16.694 117.155 16.694ZM127.088 21.572H120.824C120.872 22.544 121.112 23.264 121.544 23.732C121.988 24.188 122.642 24.416 123.506 24.416C124.502 24.416 125.426 24.092 126.278 23.444L126.926 24.992C126.494 25.34 125.96 25.622 125.324 25.838C124.7 26.042 124.064 26.144 123.416 26.144C121.928 26.144 120.758 25.724 119.906 24.884C119.054 24.044 118.628 22.892 118.628 21.428C118.628 20.504 118.814 19.682 119.186 18.962C119.558 18.242 120.08 17.684 120.752 17.288C121.424 16.88 122.186 16.676 123.038 16.676C124.286 16.676 125.27 17.084 125.99 17.9C126.722 18.704 127.088 19.814 127.088 21.23V21.572ZM123.092 18.296C122.492 18.296 122 18.476 121.616 18.836C121.244 19.184 121.004 19.694 120.896 20.366H125.126C125.054 19.682 124.844 19.166 124.496 18.818C124.16 18.47 123.692 18.296 123.092 18.296Z" fill="#2778F1"/>
</svg>
