<svg width="31" height="32" viewBox="0 0 31 32" fill="none" xmlns="http://www.w3.org/2000/svg">
<path d="M4.76116 26.0491V12.1071H9.40179V26.0491H4.76116ZM9.70312 7.80803C9.70312 9.13393 8.69866 10.2188 7.07143 10.2188H7.05134C5.48438 10.2188 4.47991 9.13393 4.47991 7.80803C4.47991 6.44196 5.52455 5.39732 7.11161 5.39732C8.69866 5.39732 9.68304 6.44196 9.70312 7.80803ZM21.4554 26.0491V18.596C21.4554 16.7076 20.7924 15.442 19.125 15.442C17.8393 15.442 17.0759 16.3058 16.7344 17.1295C16.6138 17.4308 16.5938 17.8527 16.5938 18.2545V26.0491H11.9531C12.0134 13.4129 11.9531 12.1071 11.9531 12.1071H16.5938V14.1362H16.5536C17.1563 13.1719 18.2612 11.7857 20.7522 11.7857C23.8058 11.7857 26.096 13.7746 26.096 18.0536V26.0491H21.4554ZM30.8571 6C30.8571 2.8058 28.2656 0.214284 25.0714 0.214284H5.78571C2.59152 0.214284 0 2.8058 0 6V25.2857C0 28.4799 2.59152 31.0714 5.78571 31.0714H25.0714C28.2656 31.0714 30.8571 28.4799 30.8571 25.2857V6Z" fill="white"/>
</svg>
