<svg width="452" height="43" viewBox="0 0 452 43" fill="none" xmlns="http://www.w3.org/2000/svg">
<rect width="452" height="42.6045" rx="10" fill="#2778F1"/>
<path d="M204.675 29.216C203.363 29.216 202.131 29.04 200.979 28.688C199.843 28.336 198.875 27.832 198.075 27.176L199.131 24.92C199.963 25.544 200.827 26.008 201.723 26.312C202.635 26.6 203.627 26.744 204.699 26.744C205.883 26.744 206.795 26.536 207.435 26.12C208.091 25.704 208.419 25.12 208.419 24.368C208.419 23.728 208.115 23.24 207.507 22.904C206.915 22.552 205.931 22.224 204.555 21.92C202.411 21.456 200.851 20.856 199.875 20.12C198.899 19.384 198.411 18.312 198.411 16.904C198.411 15.896 198.683 15 199.227 14.216C199.771 13.432 200.539 12.816 201.531 12.368C202.539 11.92 203.699 11.696 205.011 11.696C206.211 11.696 207.347 11.88 208.419 12.248C209.507 12.6 210.395 13.096 211.083 13.736L210.051 15.992C208.531 14.776 206.851 14.168 205.011 14.168C203.907 14.168 203.035 14.4 202.395 14.864C201.755 15.312 201.435 15.928 201.435 16.712C201.435 17.384 201.715 17.896 202.275 18.248C202.851 18.6 203.827 18.928 205.203 19.232C206.627 19.568 207.787 19.936 208.683 20.336C209.579 20.72 210.267 21.224 210.747 21.848C211.227 22.456 211.467 23.224 211.467 24.152C211.467 25.176 211.195 26.072 210.651 26.84C210.107 27.592 209.323 28.176 208.299 28.592C207.275 29.008 206.067 29.216 204.675 29.216ZM224.728 23.096H216.376C216.44 24.392 216.76 25.352 217.336 25.976C217.928 26.584 218.8 26.888 219.952 26.888C221.28 26.888 222.512 26.456 223.648 25.592L224.512 27.656C223.936 28.12 223.224 28.496 222.376 28.784C221.544 29.056 220.696 29.192 219.832 29.192C217.848 29.192 216.288 28.632 215.152 27.512C214.016 26.392 213.448 24.856 213.448 22.904C213.448 21.672 213.696 20.576 214.192 19.616C214.688 18.656 215.384 17.912 216.28 17.384C217.176 16.84 218.192 16.568 219.328 16.568C220.992 16.568 222.304 17.112 223.264 18.2C224.24 19.272 224.728 20.752 224.728 22.64V23.096ZM219.4 18.728C218.6 18.728 217.944 18.968 217.432 19.448C216.936 19.912 216.616 20.592 216.472 21.488H222.112C222.016 20.576 221.736 19.888 221.272 19.424C220.824 18.96 220.2 18.728 219.4 18.728ZM234.205 16.568C237.101 16.568 238.549 18.232 238.549 21.56V29H235.549V21.704C235.549 20.744 235.365 20.048 234.997 19.616C234.629 19.168 234.061 18.944 233.293 18.944C232.381 18.944 231.645 19.24 231.085 19.832C230.525 20.408 230.245 21.176 230.245 22.136V29H227.269V20.312C227.269 19.032 227.205 17.888 227.077 16.88H229.885L230.101 18.872C230.517 18.136 231.077 17.568 231.781 17.168C232.501 16.768 233.309 16.568 234.205 16.568ZM253.322 11.336V29H250.37V27.056C250.002 27.728 249.474 28.256 248.786 28.64C248.098 29.008 247.314 29.192 246.434 29.192C245.394 29.192 244.466 28.928 243.65 28.4C242.834 27.872 242.194 27.128 241.73 26.168C241.282 25.192 241.058 24.08 241.058 22.832C241.058 21.584 241.282 20.488 241.73 19.544C242.178 18.6 242.81 17.872 243.626 17.36C244.442 16.832 245.378 16.568 246.434 16.568C247.298 16.568 248.066 16.752 248.738 17.12C249.426 17.472 249.954 17.976 250.322 18.632V11.336H253.322ZM247.226 26.84C248.218 26.84 248.986 26.496 249.53 25.808C250.09 25.12 250.37 24.144 250.37 22.88C250.37 21.616 250.098 20.64 249.554 19.952C249.01 19.264 248.242 18.92 247.25 18.92C246.242 18.92 245.458 19.264 244.898 19.952C244.354 20.624 244.082 21.584 244.082 22.832C244.082 24.096 244.354 25.08 244.898 25.784C245.458 26.488 246.234 26.84 247.226 26.84Z" fill="white"/>
</svg>
