<svg width="155" height="38" viewBox="0 0 155 38" fill="none" xmlns="http://www.w3.org/2000/svg">
<rect x="1" y="1.70288" width="153" height="35" rx="17.5" fill="white" stroke="#4188F2" stroke-width="2"/>
<path d="M66.782 12.8869H69.14L63.434 25.7029H61.544L55.838 12.8869H58.25L62.516 22.7869L66.782 12.8869ZM70.1967 25.7029V16.6129H72.4287V25.7029H70.1967ZM70.0527 12.4909H72.5547V14.7049H70.0527V12.4909ZM82.846 21.2749H76.582C76.63 22.2469 76.87 22.9669 77.302 23.4349C77.746 23.8909 78.4 24.1189 79.264 24.1189C80.26 24.1189 81.184 23.7949 82.036 23.1469L82.684 24.6949C82.252 25.0429 81.718 25.3249 81.082 25.5409C80.458 25.7449 79.822 25.8469 79.174 25.8469C77.686 25.8469 76.516 25.4269 75.664 24.5869C74.812 23.7469 74.386 22.5949 74.386 21.1309C74.386 20.2069 74.572 19.3849 74.944 18.6649C75.316 17.9449 75.838 17.3869 76.51 16.9909C77.182 16.5829 77.944 16.3789 78.796 16.3789C80.044 16.3789 81.028 16.7869 81.748 17.6029C82.48 18.4069 82.846 19.5169 82.846 20.9329V21.2749ZM78.85 17.9989C78.25 17.9989 77.758 18.1789 77.374 18.5389C77.002 18.8869 76.762 19.3969 76.654 20.0689H80.884C80.812 19.3849 80.602 18.8689 80.254 18.5209C79.918 18.1729 79.45 17.9989 78.85 17.9989ZM96.8691 16.6129H99.0651L95.5011 25.7029H93.5391L91.2891 19.7449L89.0931 25.7029H87.1131L83.5491 16.6129H85.8531L88.1931 23.0209L90.5511 16.6129H92.1711L94.5291 23.0749L96.8691 16.6129Z" fill="#2778F1"/>
</svg>
